<svg width="86" height="85" viewBox="0 0 86 85" fill="none" xmlns="http://www.w3.org/2000/svg">
<g clip-path="url(#clip0_11_191)">
<path d="M28.9454 85.0001C36.8098 85.0001 43.1925 78.6534 43.1925 70.8334V56.6667H28.9454C21.081 56.6667 14.6982 63.0134 14.6982 70.8334C14.6982 78.6534 21.081 85.0001 28.9454 85.0001Z" fill="#0ACF83"/>
<path d="M14.6982 42.4999C14.6982 34.6799 21.081 28.3333 28.9454 28.3333H43.1925V56.6666H28.9454C21.081 56.6666 14.6982 50.3199 14.6982 42.4999Z" fill="#A259FF"/>
<path d="M14.6982 14.1667C14.6982 6.34667 21.081 0 28.9454 0H43.1925V28.3333H28.9454C21.081 28.3333 14.6982 21.9867 14.6982 14.1667Z" fill="#F24E1E"/>
<path d="M43.1924 0H57.4395C65.304 0 71.6867 6.34667 71.6867 14.1667C71.6867 21.9867 65.304 28.3333 57.4395 28.3333H43.1924V0Z" fill="#FF7262"/>
<path d="M71.6867 42.4999C71.6867 50.3199 65.304 56.6666 57.4395 56.6666C49.5751 56.6666 43.1924 50.3199 43.1924 42.4999C43.1924 34.6799 49.5751 28.3333 57.4395 28.3333C65.304 28.3333 71.6867 34.6799 71.6867 42.4999Z" fill="#1ABCFE"/>
</g>
<defs>
<clipPath id="clip0_11_191">
<rect width="85" height="85" fill="white" transform="translate(0.846191)"/>
</clipPath>
</defs>
</svg>
