<svg width="88" height="85" viewBox="0 0 88 85" fill="none" xmlns="http://www.w3.org/2000/svg">
<g clip-path="url(#clip0_11_215)">
<path d="M41.3346 31.5411V39.5923L22.0181 20.2822L28.4334 13.8669L38.1782 23.6182C37.9168 24.3222 37.7842 25.0676 37.7869 25.8186C37.7833 27.0089 38.1138 28.1764 38.741 29.1881C39.3682 30.1997 40.2668 31.015 41.3346 31.5411ZM47.2559 32.7023L50.2583 35.7046L47.2559 38.7134V32.7023ZM65.6294 20.3464L54.0241 31.9388L50.1171 28.0448C50.4732 27.0888 50.5921 26.0608 50.4636 25.0488C50.2678 23.5632 49.5583 22.193 48.4579 21.1759C47.3576 20.1588 45.9359 19.5589 44.4396 19.4803C43.5901 19.4356 42.7406 19.5667 41.944 19.8652L32.1928 10.0819L40.4557 1.84461C40.8943 1.40507 41.4152 1.05635 41.9888 0.818414C42.5623 0.580481 43.1771 0.458008 43.7981 0.458008C44.419 0.458008 45.0338 0.580481 45.6073 0.818414C46.1809 1.05635 46.7018 1.40507 47.1404 1.84461L65.6294 20.3464Z" fill="#FF8080"/>
<path d="M37.4983 46.9892L19.946 64.5415L2.52844 47.2907C1.54317 46.2658 0.99767 44.8963 1.00846 43.4746C1.01925 42.053 1.58546 40.6919 2.58618 39.6821L20.5491 21.7192L37.4983 38.7262C38.5921 39.823 39.2063 41.3087 39.2063 42.8577C39.2063 44.4066 38.5921 45.8924 37.4983 46.9892Z" fill="#80B3FF"/>
<path d="M47.2878 49.0807V56.4519C48.3568 57.0878 49.2045 58.0369 49.7163 59.1706C50.2281 60.3043 50.3791 61.5678 50.149 62.7902C49.9382 63.9828 49.3701 65.0832 48.5201 65.9458C47.6701 66.8084 46.5782 67.3926 45.3889 67.6209C43.946 67.9362 42.4376 67.7151 41.1459 66.9989C39.8542 66.2827 38.8677 65.1205 38.3708 63.7297C37.8739 62.3388 37.9007 60.8146 38.4461 59.442C38.9916 58.0695 40.0183 56.9426 41.3344 56.2723V48.1248C41.3236 48.0089 41.2814 47.8981 41.2124 47.8043C41.1434 47.7105 41.0501 47.6373 40.9427 47.5924C40.8352 47.5476 40.7175 47.5329 40.6023 47.5498C40.4871 47.5667 40.3787 47.6147 40.2887 47.6886L21.896 66.0749L40.8212 85C41.7029 85.8807 42.8981 86.3754 44.1443 86.3754C45.3905 86.3754 46.5857 85.8807 47.4674 85L65.3213 67.1783L47.2878 49.0807Z" fill="#FFE680"/>
<path d="M84.8433 48.221L67.8171 65.2537L49.4821 46.9187C48.4534 45.889 47.8755 44.493 47.8755 43.0374C47.8755 41.5819 48.4534 40.1859 49.4821 39.1562L51.5927 37.0263L56.2695 41.6902C55.7681 43.0514 55.7468 44.5431 56.2092 45.918C56.6715 47.293 57.5897 48.4688 58.8116 49.2505C60.0335 50.0323 61.4859 50.3732 62.928 50.2166C64.3702 50.0601 65.7156 49.4155 66.7413 48.3898C67.767 47.3641 68.4116 46.0187 68.5681 44.5765C68.7247 43.1344 68.3838 41.682 67.602 40.4601C66.8203 39.2382 65.6445 38.32 64.2695 37.8577C62.8946 37.3953 61.4029 37.4166 60.0417 37.918L55.3906 33.2733L67.2846 21.3857L84.8433 38.9509C85.4541 39.5584 85.9388 40.2806 86.2696 41.076C86.6003 41.8715 86.7706 42.7245 86.7706 43.5859C86.7706 44.4474 86.6003 45.3004 86.2696 46.0958C85.9388 46.8913 85.4541 47.6135 84.8433 48.221Z" fill="#8DD35F"/>
</g>
<defs>
<clipPath id="clip0_11_215">
<rect width="87.8462" height="85" fill="white"/>
</clipPath>
</defs>
</svg>
