<svg width="87" height="85" viewBox="0 0 87 85" fill="none" xmlns="http://www.w3.org/2000/svg">
<g clip-path="url(#clip0_11_220)">
<path d="M44.0922 84.9441C66.9899 84.9441 85.5521 65.9413 85.5521 42.5001C85.5521 19.059 66.9899 0.0561523 44.0922 0.0561523C21.1946 0.0561523 2.63232 19.059 2.63232 42.5001C2.63232 65.9413 21.1946 84.9441 44.0922 84.9441Z" fill="white"/>
<path d="M44.0921 0.216064C20.6789 0.216064 1.69238 19.1958 1.69238 42.6124C1.69238 61.347 13.8416 77.2383 30.6864 82.843C32.8043 83.2346 33.5841 81.9237 33.5841 80.8034C33.5841 79.7921 33.5432 76.4518 33.5262 72.9105C21.7311 75.4745 19.242 67.9085 19.242 67.9085C17.3148 63.0086 14.5328 61.7045 14.5328 61.7045C10.6851 59.0724 14.8223 59.1269 14.8223 59.1269C19.0786 59.4265 21.3225 63.4955 21.3225 63.4955C25.1055 69.9788 31.2414 68.1026 33.659 67.0198C34.0404 64.2787 35.1368 62.4093 36.3524 61.3504C26.934 60.2778 17.0355 56.6412 17.0355 40.3957C17.0355 35.7682 18.6904 31.9852 21.4042 29.016C20.965 27.9502 19.5144 23.6394 21.8162 17.7997C21.8162 17.7997 25.3779 16.6591 33.4785 22.1446C36.8598 21.2048 40.4861 20.7349 44.0921 20.7179C47.6946 20.7349 51.3244 21.2048 54.7124 22.1446C62.8062 16.6591 66.3611 17.7997 66.3611 17.7997C68.6697 23.6394 67.2158 27.9536 66.7765 29.0194C69.4938 31.9886 71.1384 35.7716 71.1384 40.3991C71.1384 56.682 61.2195 60.271 51.7773 61.3197C53.2993 62.6341 54.6546 65.2151 54.6546 69.1718C54.6546 74.8446 54.6069 79.4107 54.6069 80.8068C54.6069 81.9339 55.3696 83.2585 57.5182 82.8396C74.3562 77.2281 86.4884 61.3401 86.4884 42.6124C86.4884 19.1958 67.5052 0.216064 44.0921 0.216064Z" fill="#5C6BC0"/>
</g>
<defs>
<clipPath id="clip0_11_220">
<rect width="86" height="85" fill="white" transform="translate(0.846191)"/>
</clipPath>
</defs>
</svg>
