<svg width="86" height="85" viewBox="0 0 86 85" fill="none" xmlns="http://www.w3.org/2000/svg">
<path d="M78.1231 9.10547H41.5762C41.5762 13.481 43.3143 17.6773 46.4083 20.7712C49.5022 23.8652 53.6985 25.6033 58.074 25.6033H64.8064V32.1036C64.8124 41.2068 72.1904 48.5851 81.2936 48.591V12.2759C81.2936 10.5254 79.8745 9.10547 78.1231 9.10547Z" fill="#2684FF"/>
<path d="M60.0398 27.3154H23.4932C23.4988 36.4187 30.8768 43.7969 39.9803 43.8029H46.7127V50.3239C46.7243 59.4271 54.1073 66.8004 63.2106 66.8004V30.4865C63.2106 28.7354 61.7909 27.3154 60.0398 27.3154Z" fill="url(#paint0_linear_11_199)"/>
<path d="M41.9459 45.5151H5.39893C5.39893 54.6267 12.7855 62.013 21.8968 62.013H28.6503V68.5129C28.6562 77.6078 36.0214 84.9829 45.1166 85.0001V48.6859C45.1166 46.9348 43.697 45.5151 41.9459 45.5151Z" fill="url(#paint1_linear_11_199)"/>
<defs>
<linearGradient id="paint0_linear_11_199" x1="9964.63" y1="45.4941" x2="6021.96" y2="4653.08" gradientUnits="userSpaceOnUse">
<stop offset="0.18" stop-color="#0052CC"/>
<stop offset="1" stop-color="#2684FF"/>
</linearGradient>
<linearGradient id="paint1_linear_11_199" x1="10213.7" y1="96.8892" x2="5653.06" y2="5122.32" gradientUnits="userSpaceOnUse">
<stop offset="0.18" stop-color="#0052CC"/>
<stop offset="1" stop-color="#2684FF"/>
</linearGradient>
</defs>
</svg>
