<svg width="85" height="85" viewBox="0 0 85 85" fill="none" xmlns="http://www.w3.org/2000/svg">
<g clip-path="url(#clip0_11_181)">
<path d="M81.9918 9.1775L64.4771 0.743905C62.4517 -0.232267 60.0279 0.179452 58.4375 1.76988L1.10232 54.0449C-0.438305 55.4527 -0.438305 57.8798 1.10564 59.2843L5.78728 63.541C7.049 64.6898 8.95154 64.7728 10.3095 63.7435L79.3554 11.3656C81.673 9.60914 85 11.2593 85 14.1679V13.9654C85 11.9234 83.8312 10.0607 81.9918 9.1775Z" fill="#0065A9"/>
<path d="M81.9918 75.8228L64.4771 84.2563C62.4517 85.2325 60.0279 84.8208 58.4375 83.2304L1.10232 30.9554C-0.438305 29.5509 -0.438305 27.1204 1.10564 25.7192L5.78728 21.4626C7.049 20.3138 8.95154 20.2308 10.3095 21.2601L79.3554 73.6347C81.673 75.3911 85 73.7409 85 70.8323V71.0349C85 73.0769 83.8312 74.9395 81.9918 75.8228Z" fill="#007ACC"/>
<path d="M64.4805 84.2563C62.4518 85.2325 60.0313 84.8207 58.4375 83.227C60.3965 85.186 63.75 83.7981 63.75 81.0256V3.97114C63.75 1.19868 60.3965 -0.189214 58.4375 1.76977C60.0279 0.17934 62.4518 -0.232378 64.4805 0.740473L81.9918 9.16079C83.8313 10.0473 85.0033 11.9067 85.0033 13.9487V71.0481C85.0033 73.0901 83.8346 74.9495 81.9918 75.836L64.4805 84.2563Z" fill="#1F9CF0"/>
<g opacity="0.25">
<path fill-rule="evenodd" clip-rule="evenodd" d="M60.2238 84.4191C61.5619 84.9403 63.0892 84.9071 64.4406 84.2564L81.942 75.836C83.7814 74.9528 84.9502 73.0901 84.9502 71.0481V13.9521C84.9502 11.9101 83.7814 10.0507 81.942 9.16417L64.4406 0.743858C62.6676 -0.109462 60.5924 0.0997175 59.0351 1.23194C58.8127 1.39464 58.6002 1.57394 58.401 1.77316L24.899 32.3366L10.3062 21.2567C8.94822 20.2241 7.049 20.3105 5.78728 21.4593L1.10564 25.7159C-0.438305 27.1204 -0.438305 29.5476 1.10232 30.9554L13.7594 42.5001L1.10232 54.0448C-0.438305 55.4526 -0.438305 57.8798 1.10564 59.2843L5.78728 63.5409C7.049 64.6898 8.94822 64.7728 10.3062 63.7435L24.899 52.6669L58.401 83.2304C58.9322 83.7583 59.5531 84.1601 60.2238 84.4191ZM63.7101 23.2058L38.2898 42.5001L63.7101 61.7978V23.2058Z" fill="url(#paint0_linear_11_181)"/>
</g>
</g>
<defs>
<linearGradient id="paint0_linear_11_181" x1="42.4481" y1="0.219249" x2="42.4481" y2="84.781" gradientUnits="userSpaceOnUse">
<stop stop-color="white"/>
<stop offset="1" stop-color="white" stop-opacity="0"/>
</linearGradient>
<clipPath id="clip0_11_181">
<rect width="85" height="85" fill="white"/>
</clipPath>
</defs>
</svg>
